<svg width="16" height="17" viewBox="0 0 16 17" fill="none" xmlns="http://www.w3.org/2000/svg">
<path fill-rule="evenodd" clip-rule="evenodd" d="M11.4343 4.76763C11.6058 4.59681 11.8372 4.50067 12.0787 4.5C12.3201 4.49933 12.552 4.59419 12.7244 4.76405C12.8968 4.93392 12.9958 5.16515 12.9999 5.40776C13.004 5.65036 12.9129 5.88485 12.7464 6.06052L7.85587 12.2048C7.77182 12.2958 7.67038 12.3689 7.55761 12.4195C7.44483 12.4702 7.32305 12.4975 7.19954 12.4998C7.07602 12.5021 6.95332 12.4794 6.83876 12.4329C6.72419 12.3865 6.62013 12.3173 6.53278 12.2295L3.29244 8.97138C3.20217 8.88683 3.12976 8.78488 3.07954 8.6716C3.02932 8.55832 3.00232 8.43603 3.00014 8.31203C2.99797 8.18803 3.02066 8.06487 3.06687 7.94987C3.11308 7.83488 3.18187 7.73042 3.26911 7.64273C3.35636 7.55504 3.46029 7.48591 3.5747 7.43946C3.68911 7.39301 3.81165 7.3702 3.93502 7.37239C4.05839 7.37458 4.18006 7.40172 4.29277 7.45219C4.40547 7.50267 4.50691 7.57544 4.59103 7.66617L7.15635 10.2433L11.4111 4.79472C11.4187 4.78518 11.4268 4.77613 11.4356 4.76763H11.4343Z" fill="#5BD77E"/>
</svg>
