<svg width="7" height="4" viewBox="0 0 7 4" fill="none" xmlns="http://www.w3.org/2000/svg">
<path d="M4.55943 3.70589C4.47304 3.79845 4.36743 3.87248 4.24944 3.92315C4.13144 3.97382 4.00371 4 3.87454 4C3.74537 4 3.61764 3.97382 3.49964 3.92315C3.38165 3.87248 3.27604 3.79845 3.18965 3.70589L1.1115 1.48182C0.992279 1.35416 0.914038 1.19591 0.88626 1.02625C0.858482 0.856584 0.882359 0.682798 0.954998 0.525954C1.02764 0.369109 1.14592 0.23594 1.29551 0.142586C1.44509 0.0492322 1.61956 -0.000297087 1.79777 1.63596e-06L5.95223 1.27276e-06C6.13044 -0.000297481 6.30491 0.0492318 6.45449 0.142585C6.60408 0.235939 6.72236 0.369108 6.795 0.525953C6.86764 0.682798 6.89152 0.856583 6.86374 1.02624C6.83596 1.19591 6.75772 1.35416 6.6385 1.48182L4.55943 3.70589Z" fill="#555555"/>
</svg>
