<svg width="24" height="17" viewBox="0 0 24 17" fill="none" xmlns="http://www.w3.org/2000/svg">
<path d="M15.2394 13.8705C15.2394 13.8705 12.8151 16.1477 9.48462 14.9719C9.48462 14.9745 12.9644 18.4784 15.2394 13.8705Z" fill="#3A86FF"/>
<path d="M18.1822 5.34758C18.9451 5.14197 19.7481 5.18285 20.489 5.46503C20.5853 5.49847 20.6793 5.53858 20.7707 5.58508C20.8637 5.62945 20.9592 5.66991 21.0498 5.71558C21.1404 5.76125 21.2286 5.82259 21.3168 5.87739L21.4502 5.96222L21.5727 6.05748C21.6559 6.12273 21.7416 6.18797 21.8249 6.25453C21.9082 6.32108 21.9804 6.40068 22.0588 6.47507C22.2152 6.6255 22.3613 6.78773 22.4959 6.96051C23.0475 7.66959 23.4126 8.52206 23.5538 9.4308C23.5636 9.48691 23.5746 9.54433 23.5832 9.60175L23.5979 9.774L23.6223 10.1198C23.6279 10.2359 23.6279 10.3522 23.6223 10.4682C23.6223 10.5844 23.6223 10.7005 23.6089 10.8167C23.5243 11.7501 23.2188 12.6454 22.7212 13.4188C22.6575 13.514 22.5877 13.6041 22.5216 13.6967C22.4566 13.7884 22.3863 13.8755 22.311 13.9577C22.1654 14.1297 22.0087 14.2906 21.842 14.4392C21.7588 14.5123 21.678 14.5906 21.591 14.6585L21.3217 14.8529C21.2776 14.8842 21.2323 14.9182 21.187 14.9482L21.0449 15.0304L20.7596 15.1922C20.6629 15.2418 20.5613 15.2809 20.4633 15.3227C20.3652 15.3682 20.2646 15.4074 20.1621 15.4401C19.9592 15.5086 19.7522 15.5627 19.5426 15.602C18.7223 15.7635 17.8763 15.6864 17.0937 15.3788C16.354 15.0891 15.7138 14.5678 15.2571 13.8833C15.588 14.0427 15.9313 14.1711 16.2831 14.267C16.4501 14.3125 16.6194 14.3483 16.7901 14.374C16.9564 14.4008 17.124 14.4173 17.2921 14.4236C17.4552 14.4327 17.6187 14.4327 17.7818 14.4236C17.9425 14.4144 18.1025 14.3939 18.2606 14.3622C18.4161 14.3231 18.5716 14.3074 18.721 14.2526L18.9438 14.1848C19.0161 14.1534 19.0883 14.1247 19.1593 14.096C19.4419 13.9808 19.7126 13.8352 19.9674 13.6615C20.4553 13.3099 20.8717 12.8572 21.1919 12.3304L21.2996 12.1308L21.3547 12.0316C21.3719 11.9964 21.3841 11.9611 21.4 11.9259L21.4931 11.7184C21.5237 11.6492 21.5421 11.5735 21.569 11.5018L21.6069 11.3948C21.6216 11.3596 21.6327 11.3228 21.64 11.2851C21.6584 11.2108 21.6755 11.1364 21.6963 11.0633C21.7049 11.0255 21.7171 10.9889 21.7245 10.9511L21.7416 10.8375C21.7539 10.7619 21.7661 10.6862 21.7796 10.6092C21.7931 10.5322 21.7918 10.4552 21.7992 10.3782L21.809 10.2621C21.8147 10.2237 21.8168 10.1848 21.8151 10.1459V9.79488C21.8151 9.75704 21.8078 9.71789 21.8041 9.67874L21.7833 9.44515C21.7751 9.36757 21.7633 9.29048 21.7478 9.21418C21.7318 9.13718 21.7245 9.05758 21.7049 8.98189L21.6449 8.75353L21.6167 8.63738L21.5763 8.52516C21.5506 8.45077 21.5237 8.37639 21.4992 8.2994C21.4747 8.22241 21.4355 8.15324 21.4037 8.07886C21.374 8.00408 21.3401 7.9313 21.3021 7.86093C21.22 7.72391 21.1539 7.57123 21.0572 7.44074C21.0107 7.37288 20.969 7.30241 20.92 7.23586C20.8711 7.1693 20.8196 7.10536 20.7694 7.04142L20.6935 6.94224L20.609 6.8522C20.5527 6.79087 20.4964 6.73084 20.4401 6.66689C20.3837 6.60295 20.3176 6.55336 20.2564 6.49464C20.1955 6.43545 20.1318 6.3797 20.0654 6.32761C19.9331 6.21811 19.795 6.11701 19.6515 6.02485L19.4311 5.88131C19.354 5.84216 19.2769 5.8004 19.1973 5.75864C19.0378 5.6749 18.8743 5.59998 18.7075 5.53419C18.6227 5.49762 18.5361 5.46625 18.4479 5.44023C18.361 5.41152 18.2728 5.3802 18.1822 5.34758Z" fill="#FDBC0B"/>
<path d="M5.52812 4.69336C5.52812 4.69336 1.63812 5.25841 0.68797 8.27808C-0.240144 11.2273 0.932854 14.2222 3.7172 15.5036C6.75254 16.8986 12.069 15.1122 15.168 9.6235L16.0104 10.6975L17.1491 6.58164L13.7281 8.72308L14.8399 9.31683C14.8399 9.31683 9.78055 15.9251 4.32818 13.7641C3.68346 13.4815 3.13628 12.9937 2.76133 12.3673C2.38639 11.7409 2.20195 11.0065 2.23319 10.2642C2.28095 7.57993 4.26696 6.70822 6.08768 6.39894L6.00687 6.20581" fill="#9635F0"/>
<path d="M16.0769 3.70626C16.0769 3.70626 14.3064 0.228544 9.98293 0.81708C5.65948 1.40562 3.90488 5.35312 7.14226 7.32491C7.14226 7.32491 5.17094 3.33826 10.3368 1.99937C13.5987 1.15506 16.0769 3.70626 16.0769 3.70626Z" fill="#FF006E"/>
</svg>
