<svg width="71" height="31" viewBox="0 0 71 31" fill="none" xmlns="http://www.w3.org/2000/svg">
<path d="M7.09232 20.2123C6.83645 20.2123 6.66758 20.1028 6.5857 19.8837L4.39035 13.7846C4.38012 13.7584 4.375 13.7189 4.375 13.6663C4.375 13.5875 4.4057 13.5218 4.46711 13.4692C4.52852 13.4078 4.60528 13.3772 4.69739 13.3772H5.86415C5.9665 13.3772 6.0535 13.4035 6.12514 13.456C6.20702 13.5086 6.25819 13.5656 6.27866 13.6269L7.76781 17.9515L9.34908 13.6663C9.37978 13.5875 9.43095 13.5218 9.5026 13.4692C9.58448 13.4078 9.68682 13.3772 9.80964 13.3772H10.5926C10.7154 13.3772 10.8126 13.4078 10.8843 13.4692C10.9662 13.5218 11.0173 13.5875 11.0378 13.6663L12.6344 17.9515L14.1236 13.6269C14.144 13.5656 14.1901 13.5086 14.2617 13.456C14.3334 13.4035 14.4255 13.3772 14.5381 13.3772H15.6895C15.7816 13.3772 15.8584 13.4078 15.9198 13.4692C15.9914 13.5218 16.0272 13.5875 16.0272 13.6663L15.9965 13.7846L13.8012 19.8837C13.7602 19.9888 13.6988 20.0721 13.617 20.1334C13.5453 20.186 13.443 20.2123 13.3099 20.2123H12.2967C12.0306 20.2123 11.8617 20.1028 11.7901 19.8837L10.2088 15.7563L8.61218 19.8837C8.5303 20.1028 8.35631 20.2123 8.0902 20.2123H7.09232Z" fill="#020547"/>
<path d="M20.8423 20.3438C19.6346 20.3438 18.7032 20.0809 18.0482 19.5551C17.3932 19.0293 17.0401 18.302 16.9889 17.3731L16.9735 16.7947L16.9889 16.2164C17.0401 15.2963 17.3983 14.5733 18.0635 14.0475C18.7288 13.513 19.655 13.2457 20.8423 13.2457C22.0193 13.2457 22.9404 13.513 23.6056 14.0475C24.2709 14.5733 24.6291 15.2963 24.6803 16.2164C24.6905 16.3215 24.6956 16.5143 24.6956 16.7947C24.6956 17.0752 24.6905 17.2679 24.6803 17.3731C24.6291 18.302 24.276 19.0293 23.621 19.5551C22.966 20.0809 22.0397 20.3438 20.8423 20.3438ZM20.8423 19.0162C21.3847 19.0162 21.7992 18.8716 22.0858 18.5824C22.3826 18.2932 22.5412 17.8682 22.5617 17.3074C22.5719 17.2197 22.5771 17.0489 22.5771 16.7947C22.5771 16.5406 22.5719 16.3697 22.5617 16.2821C22.5412 15.7213 22.3826 15.2963 22.0858 15.0071C21.789 14.7091 21.3745 14.5602 20.8423 14.5602C20.2998 14.5602 19.8802 14.7091 19.5834 15.0071C19.2866 15.2963 19.128 15.7213 19.1075 16.2821L19.0921 16.7947L19.1075 17.3074C19.128 17.8682 19.2866 18.2932 19.5834 18.5824C19.8802 18.8716 20.2998 19.0162 20.8423 19.0162Z" fill="#020547"/>
<path d="M26.7647 20.2123C26.6624 20.2123 26.5754 20.1816 26.5037 20.1203C26.4321 20.059 26.3962 19.9845 26.3962 19.8968V13.7058C26.3962 13.6094 26.4321 13.5305 26.5037 13.4692C26.5754 13.4078 26.6624 13.3772 26.7647 13.3772H28.0236C28.1362 13.3772 28.2283 13.4078 28.2999 13.4692C28.3716 13.5305 28.4074 13.6094 28.4074 13.7058V14.2447C28.9191 13.6663 29.656 13.3772 30.6181 13.3772H31.2629C31.3754 13.3772 31.4624 13.4078 31.5238 13.4692C31.5955 13.5218 31.6313 13.5962 31.6313 13.6926V14.6522C31.6313 14.7398 31.5955 14.8143 31.5238 14.8756C31.4624 14.937 31.3754 14.9676 31.2629 14.9676H30.05C29.569 14.9676 29.1903 15.0859 28.914 15.3225C28.6377 15.5592 28.4995 15.8834 28.4995 16.2952V19.8968C28.4995 19.9845 28.4637 20.059 28.392 20.1203C28.3204 20.1816 28.2334 20.2123 28.131 20.2123H26.7647Z" fill="#020547"/>
<path d="M33.2117 20.2123C33.1094 20.2123 33.0224 20.1816 32.9507 20.1203C32.8791 20.059 32.8433 19.9845 32.8433 19.8968V11.1952C32.8433 11.0988 32.8791 11.0243 32.9507 10.9717C33.0224 10.9104 33.1094 10.8797 33.2117 10.8797H34.486C34.5883 10.8797 34.6753 10.9104 34.7469 10.9717C34.8186 11.0331 34.8544 11.1075 34.8544 11.1952V15.6906L37.4029 13.6006C37.4336 13.5831 37.4796 13.5524 37.541 13.5086C37.6127 13.456 37.6792 13.421 37.7406 13.4035C37.802 13.3859 37.8788 13.3772 37.9709 13.3772H39.4293C39.5317 13.3772 39.6136 13.4035 39.675 13.456C39.7364 13.5086 39.7671 13.5787 39.7671 13.6663C39.7671 13.7452 39.7159 13.8241 39.6136 13.9029L36.4817 16.4398L39.9974 19.6997C40.0895 19.7785 40.1355 19.853 40.1355 19.9231C40.1355 20.0108 40.1048 20.0809 40.0434 20.1334C39.982 20.186 39.9052 20.2123 39.8131 20.2123H38.324C38.1807 20.2123 38.0732 20.1992 38.0016 20.1729C37.9402 20.1378 37.8583 20.0765 37.756 19.9888L34.8544 17.3468V19.8968C34.8544 19.9845 34.8186 20.059 34.7469 20.1203C34.6753 20.1816 34.5883 20.2123 34.486 20.2123H33.2117Z" fill="#020547"/>
<path d="M41.6056 12.2599C41.5033 12.2599 41.4163 12.2292 41.3446 12.1679C41.273 12.1065 41.2372 12.032 41.2372 11.9444V10.9849C41.2372 10.8885 41.273 10.8096 41.3446 10.7483C41.4163 10.6869 41.5033 10.6562 41.6056 10.6562H43.018C43.1306 10.6562 43.2227 10.6869 43.2943 10.7483C43.366 10.8096 43.4018 10.8885 43.4018 10.9849V11.9444C43.4018 12.032 43.3609 12.1065 43.279 12.1679C43.2073 12.2292 43.1203 12.2599 43.018 12.2599H41.6056ZM41.667 20.2123C41.5647 20.2123 41.4777 20.1816 41.406 20.1203C41.3344 20.059 41.2986 19.9845 41.2986 19.8968V13.6926C41.2986 13.5962 41.3344 13.5218 41.406 13.4692C41.4777 13.4078 41.5647 13.3772 41.667 13.3772H42.9719C43.0743 13.3772 43.1613 13.4078 43.2329 13.4692C43.3046 13.5305 43.3404 13.605 43.3404 13.6926V19.8968C43.3404 19.9845 43.3046 20.059 43.2329 20.1203C43.1613 20.1816 43.0743 20.2123 42.9719 20.2123H41.667Z" fill="#020547"/>
<path d="M48.9078 20.3438C47.7001 20.3438 46.7687 20.0809 46.1137 19.5551C45.4587 19.0293 45.1056 18.302 45.0544 17.3731L45.0391 16.7947L45.0544 16.2164C45.1056 15.2963 45.4638 14.5733 46.1291 14.0475C46.7943 13.513 47.7206 13.2457 48.9078 13.2457C50.0848 13.2457 51.0059 13.513 51.6712 14.0475C52.3364 14.5733 52.6947 15.2963 52.7458 16.2164C52.7561 16.3215 52.7612 16.5143 52.7612 16.7947C52.7612 17.0752 52.7561 17.2679 52.7458 17.3731C52.6947 18.302 52.3416 19.0293 51.6865 19.5551C51.0315 20.0809 50.1053 20.3438 48.9078 20.3438ZM48.9078 19.0162C49.4502 19.0162 49.8647 18.8716 50.1513 18.5824C50.4481 18.2932 50.6068 17.8682 50.6272 17.3074C50.6375 17.2197 50.6426 17.0489 50.6426 16.7947C50.6426 16.5406 50.6375 16.3697 50.6272 16.2821C50.6068 15.7213 50.4481 15.2963 50.1513 15.0071C49.8545 14.7091 49.44 14.5602 48.9078 14.5602C48.3654 14.5602 47.9457 14.7091 47.6489 15.0071C47.3521 15.2963 47.1935 15.7213 47.173 16.2821L47.1577 16.7947L47.173 17.3074C47.1935 17.8682 47.3521 18.2932 47.6489 18.5824C47.9457 18.8716 48.3654 19.0162 48.9078 19.0162Z" fill="#020547"/>
<path d="M54.8302 20.2123C54.7279 20.2123 54.6409 20.1816 54.5692 20.1203C54.4976 20.059 54.4618 19.9845 54.4618 19.8968V13.6926C54.4618 13.5962 54.4976 13.5218 54.5692 13.4692C54.6409 13.4078 54.7279 13.3772 54.8302 13.3772H56.043C56.1556 13.3772 56.2426 13.4078 56.304 13.4692C56.3757 13.5218 56.4115 13.5962 56.4115 13.6926V14.1395C56.9642 13.5437 57.7062 13.2457 58.6375 13.2457C59.7736 13.2457 60.5668 13.6357 61.0171 14.4156C61.2628 14.0651 61.6107 13.7846 62.0611 13.5743C62.5114 13.3553 62.9975 13.2457 63.5195 13.2457C64.3588 13.2457 65.0445 13.4911 65.5767 13.9818C66.1089 14.4725 66.375 15.1867 66.375 16.1244V19.8968C66.375 19.9845 66.3392 20.059 66.2675 20.1203C66.2061 20.1816 66.1191 20.2123 66.0066 20.2123H64.7323C64.63 20.2123 64.543 20.1816 64.4713 20.1203C64.3997 20.059 64.3639 19.9845 64.3639 19.8968V16.2295C64.3639 15.6775 64.2257 15.2787 63.9494 15.0334C63.6833 14.788 63.3302 14.6653 62.8901 14.6653C62.4909 14.6653 62.1481 14.7924 61.8615 15.0465C61.5851 15.2919 61.447 15.6862 61.447 16.2295V19.8968C61.447 19.9845 61.4112 20.059 61.3395 20.1203C61.2781 20.1816 61.1911 20.2123 61.0785 20.2123H59.789C59.6866 20.2123 59.5996 20.1816 59.528 20.1203C59.4563 20.059 59.4205 19.9845 59.4205 19.8968V16.2295C59.4205 15.6862 59.2823 15.2919 59.006 15.0465C58.7297 14.7924 58.3766 14.6653 57.9467 14.6653C57.5476 14.6653 57.2047 14.7924 56.9181 15.0465C56.6418 15.2919 56.5036 15.6862 56.5036 16.2295V19.8968C56.5036 19.9845 56.4678 20.059 56.3961 20.1203C56.3347 20.1816 56.2477 20.2123 56.1352 20.2123H54.8302Z" fill="#020547"/>
</svg>
