<svg width="12" height="8" viewBox="0 0 12 8" fill="none" xmlns="http://www.w3.org/2000/svg">
<path opacity="0.6" d="M10.6665 0.5C10.4896 0.5 10.32 0.570201 10.1949 0.695159C10.0699 0.820118 9.9996 0.989598 9.9996 1.16632V3.83158C9.9996 4.0083 9.92935 4.17777 9.80428 4.30273C9.67922 4.42769 9.5096 4.49789 9.33273 4.49789H2.9374L3.80434 3.63835C3.92992 3.51288 4.00046 3.3427 4.00046 3.16526C4.00046 2.98782 3.92992 2.81765 3.80434 2.69218C3.67877 2.56671 3.50845 2.49622 3.33086 2.49622C3.15327 2.49622 2.98295 2.56671 2.85738 2.69218L0.856755 4.69112C0.796043 4.75449 0.748451 4.82922 0.716712 4.91101C0.650012 5.07323 0.650012 5.25519 0.716712 5.41741C0.748451 5.4992 0.796043 5.57392 0.856755 5.63729L2.85738 7.63624C2.91937 7.69869 2.99313 7.74826 3.07439 7.78209C3.15566 7.81592 3.24282 7.83333 3.33086 7.83333C3.41889 7.83333 3.50606 7.81592 3.58732 7.78209C3.66859 7.74826 3.74235 7.69869 3.80434 7.63624C3.86685 7.5743 3.91646 7.5006 3.95031 7.4194C3.98417 7.33821 4.0016 7.25112 4.0016 7.16315C4.0016 7.07519 3.98417 6.9881 3.95031 6.9069C3.91646 6.82571 3.86685 6.75201 3.80434 6.69007L2.9374 5.83052H9.33273C9.86333 5.83052 10.3722 5.61992 10.7474 5.24505C11.1226 4.87017 11.3334 4.36173 11.3334 3.83158V1.16632C11.3334 0.989598 11.2631 0.820118 11.138 0.695159C11.013 0.570201 10.8433 0.5 10.6665 0.5Z" fill="white"/>
</svg>
