<svg width="20" height="20" viewBox="0 0 20 20" fill="none" xmlns="http://www.w3.org/2000/svg">
<path fill-rule="evenodd" clip-rule="evenodd" d="M12.251 12.3574C12.8482 11.7323 13.1837 10.8844 13.1837 10.0004C13.1837 9.1163 12.8482 8.26845 12.251 7.64333C11.6539 7.01821 10.8439 6.66702 9.99939 6.66702C9.15487 6.66702 8.34493 7.01821 7.74776 7.64333C7.15059 8.26845 6.8151 9.1163 6.8151 10.0004C6.8151 10.8844 7.15059 11.7323 7.74776 12.3574C8.34493 12.9825 9.15487 13.3337 9.99939 13.3337C10.8439 13.3337 11.6539 12.9825 12.251 12.3574ZM11.1252 11.1789C11.4238 10.8663 11.5915 10.4424 11.5915 10.0004C11.5915 9.55833 11.4238 9.13441 11.1252 8.82185C10.8266 8.50928 10.4217 8.33369 9.99939 8.33369C9.57713 8.33369 9.17216 8.50928 8.87358 8.82185C8.57499 9.13441 8.40725 9.55833 8.40725 10.0004C8.40725 10.4424 8.57499 10.8663 8.87358 11.1789C9.17216 11.4914 9.57713 11.667 9.99939 11.667C10.4217 11.667 10.8266 11.4914 11.1252 11.1789Z" fill="#747474"/>
<path fill-rule="evenodd" clip-rule="evenodd" d="M19.0618 9.32626C17.7944 5.35893 14.2157 2.5 9.99998 2.5C5.78346 2.5 2.20545 5.35893 0.93817 9.32626C0.798361 9.76395 0.798361 10.2361 0.93817 10.6737C2.20545 14.6411 5.78346 17.5 9.99998 17.5C14.2165 17.5 17.7945 14.6411 19.0618 10.6737C19.2016 10.2361 19.2016 9.76395 19.0618 9.32626ZM2.68877 10.804C3.91086 13.7634 6.72589 15.8333 9.99998 15.8333C13.2741 15.8333 16.0891 13.7634 17.3112 10.804C17.5235 10.29 17.5235 9.71001 17.3112 9.19597C16.0891 6.2366 13.2741 4.16667 9.99998 4.16667C6.72589 4.16667 3.91086 6.2366 2.68877 9.19597C2.47649 9.71001 2.47649 10.29 2.68877 10.804Z" fill="#747474"/>
</svg>
