<svg width="32" height="31" viewBox="0 0 32 31" fill="none" xmlns="http://www.w3.org/2000/svg">
<path d="M19.2394 20.8705C19.2394 20.8705 16.8151 23.1477 13.4846 21.9719C13.4846 21.9745 16.9644 25.4784 19.2394 20.8705Z" fill="#3A86FF"/>
<path d="M22.1822 12.3476C22.9451 12.142 23.7481 12.1828 24.489 12.465C24.5853 12.4985 24.6793 12.5386 24.7707 12.5851C24.8637 12.6295 24.9592 12.6699 25.0498 12.7156C25.1404 12.7613 25.2286 12.8226 25.3168 12.8774L25.4502 12.9622L25.5727 13.0575C25.6559 13.1227 25.7416 13.188 25.8249 13.2545C25.9082 13.3211 25.9804 13.4007 26.0588 13.4751C26.2152 13.6255 26.3613 13.7877 26.4959 13.9605C27.0475 14.6696 27.4126 15.5221 27.5538 16.4308C27.5636 16.4869 27.5746 16.5443 27.5832 16.6017L27.5979 16.774L27.6223 17.1198C27.6279 17.2359 27.6279 17.3522 27.6223 17.4682C27.6223 17.5844 27.6223 17.7005 27.6089 17.8167C27.5243 18.7501 27.2188 19.6454 26.7212 20.4188C26.6575 20.514 26.5877 20.6041 26.5216 20.6967C26.4566 20.7884 26.3863 20.8755 26.311 20.9577C26.1654 21.1297 26.0087 21.2906 25.842 21.4392C25.7588 21.5123 25.678 21.5906 25.591 21.6585L25.3217 21.8529C25.2776 21.8842 25.2323 21.9182 25.187 21.9482L25.0449 22.0304L24.7596 22.1922C24.6629 22.2418 24.5613 22.2809 24.4633 22.3227C24.3652 22.3682 24.2646 22.4074 24.1621 22.4401C23.9592 22.5086 23.7522 22.5627 23.5426 22.602C22.7223 22.7635 21.8763 22.6864 21.0937 22.3788C20.354 22.0891 19.7138 21.5678 19.2571 20.8833C19.588 21.0427 19.9313 21.1711 20.2831 21.267C20.4501 21.3125 20.6194 21.3483 20.7901 21.374C20.9564 21.4008 21.124 21.4173 21.2921 21.4236C21.4552 21.4327 21.6187 21.4327 21.7818 21.4236C21.9425 21.4144 22.1025 21.3939 22.2606 21.3622C22.4161 21.3231 22.5716 21.3074 22.721 21.2526L22.9438 21.1848C23.0161 21.1534 23.0883 21.1247 23.1593 21.096C23.4419 20.9808 23.7126 20.8352 23.9674 20.6615C24.4553 20.3099 24.8717 19.8572 25.1919 19.3304L25.2996 19.1308L25.3547 19.0316C25.3719 18.9964 25.3841 18.9611 25.4 18.9259L25.4931 18.7184C25.5237 18.6492 25.5421 18.5735 25.569 18.5018L25.6069 18.3948C25.6216 18.3596 25.6327 18.3228 25.64 18.2851C25.6584 18.2108 25.6755 18.1364 25.6963 18.0633C25.7049 18.0255 25.7171 17.9889 25.7245 17.9511L25.7416 17.8375C25.7539 17.7619 25.7661 17.6862 25.7796 17.6092C25.7931 17.5322 25.7918 17.4552 25.7992 17.3782L25.809 17.2621C25.8147 17.2237 25.8168 17.1848 25.8151 17.1459V16.7949C25.8151 16.757 25.8078 16.7179 25.8041 16.6787L25.7833 16.4452C25.7751 16.3676 25.7633 16.2905 25.7478 16.2142C25.7318 16.1372 25.7245 16.0576 25.7049 15.9819L25.6449 15.7535L25.6167 15.6374L25.5763 15.5252C25.5506 15.4508 25.5237 15.3764 25.4992 15.2994C25.4747 15.2224 25.4355 15.1532 25.4037 15.0789C25.374 15.0041 25.3401 14.9313 25.3021 14.8609C25.22 14.7239 25.1539 14.5712 25.0572 14.4407C25.0107 14.3729 24.969 14.3024 24.92 14.2359C24.8711 14.1693 24.8196 14.1054 24.7694 14.0414L24.6935 13.9422L24.609 13.8522C24.5527 13.7909 24.4964 13.7308 24.4401 13.6669C24.3837 13.603 24.3176 13.5534 24.2564 13.4946C24.1955 13.4354 24.1318 13.3797 24.0654 13.3276C23.9331 13.2181 23.795 13.117 23.6515 13.0249L23.4311 12.8813C23.354 12.8422 23.2769 12.8004 23.1973 12.7586C23.0378 12.6749 22.8743 12.6 22.7075 12.5342C22.6227 12.4976 22.5361 12.4662 22.4479 12.4402C22.361 12.4115 22.2728 12.3802 22.1822 12.3476Z" fill="#FDBC0B"/>
<path d="M9.52812 11.6934C9.52812 11.6934 5.63812 12.2584 4.68797 15.2781C3.75986 18.2273 4.93285 21.2222 7.7172 22.5036C10.7525 23.8986 16.069 22.1122 19.168 16.6235L20.0104 17.6975L21.1491 13.5816L17.7281 15.7231L18.8399 16.3168C18.8399 16.3168 13.7805 22.9251 8.32818 20.7641C7.68346 20.4815 7.13628 19.9937 6.76133 19.3673C6.38639 18.7409 6.20195 18.0065 6.23319 17.2642C6.28095 14.5799 8.26696 13.7082 10.0877 13.3989L10.0069 13.2058" fill="#9635F0"/>
<path d="M20.0769 10.7063C20.0769 10.7063 18.3064 7.22854 13.9829 7.81708C9.65948 8.40562 7.90488 12.3531 11.1423 14.3249C11.1423 14.3249 9.17094 10.3383 14.3368 8.99937C17.5987 8.15506 20.0769 10.7063 20.0769 10.7063Z" fill="#FF006E"/>
</svg>
